<svg width="32" height="32" viewBox="0 0 32 32" fill="none" xmlns="http://www.w3.org/2000/svg">
<g clip-path="url(#clip0_1_156)">
<path d="M16 10C12.6938 10 10 12.6937 10 16C10 19.3063 12.6938 22 16 22C19.3063 22 22 19.3063 22 16C22 12.6937 19.3063 10 16 10ZM31.4 15.0312L25.4813 12.075L27.575 5.8C27.8563 4.95 27.05 4.14375 26.2063 4.43125L19.9313 6.525L16.9688 0.6C16.5688 -0.2 15.4313 -0.2 15.0313 0.6L12.075 6.51875L5.79375 4.425C4.94375 4.14375 4.1375 4.95 4.425 5.79375L6.51875 12.0688L0.6 15.0312C-0.2 15.4313 -0.2 16.5687 0.6 16.9688L6.51875 19.925L4.425 26.2062C4.14375 27.0562 4.95 27.8625 5.79375 27.575L12.0688 25.4813L15.025 31.4C15.425 32.2 16.5625 32.2 16.9625 31.4L19.9188 25.4813L26.1938 27.575C27.0438 27.8563 27.85 27.05 27.5625 26.2062L25.4688 19.9312L31.3875 16.975C32.2 16.5688 32.2 15.4313 31.4 15.0312V15.0312ZM21.6563 21.6562C18.5375 24.775 13.4625 24.775 10.3438 21.6562C7.225 18.5375 7.225 13.4625 10.3438 10.3438C13.4625 7.225 18.5375 7.225 21.6563 10.3438C24.775 13.4625 24.775 18.5375 21.6563 21.6562Z" fill="white"/>
</g>
<defs>
<clipPath id="clip0_1_156">
<rect width="32" height="32" fill="white"/>
</clipPath>
</defs>
</svg>
